<?xml version="1.0" encoding="UTF-8" standalone="no"?>
<!DOCTYPE svg PUBLIC "-//W3C//DTD SVG 1.1//EN" "http://www.w3.org/Graphics/SVG/1.1/DTD/svg11.dtd">
<!-- Generated by graphviz version 2.40.1 (20161225.0304)
 -->
<!-- Title: ProTracker modules Pages: 1 -->
<svg xmlns="http://www.w3.org/2000/svg" xmlns:xlink="http://www.w3.org/1999/xlink" width="802pt" height="230pt" viewBox="0.00 0.00 802.00 230.00">
  <g id="graph0" class="graph" transform="scale (0.65 0.65) rotate(0) translate(4 310)">
    <title>ProTracker modules</title>
    <polygon fill="#ffffff" stroke="transparent" points="-4,4 -4,-310 798,-310 798,4 -4,4"/>
    <!-- mod -->
    <g id="node1" class="node grvzclick">
      <title>mod</title>
      <g id="a_node1">
        <a xlink:href="#protracker-module-objects-pt2mod" xlink:title="ProTracker module&#10;(pt2mod)">
          <path fill="#ffffff" stroke="#000000" d="M118,-306C118,-306 12,-306 12,-306 6,-306 0,-300 0,-294 0,-294 0,-282 0,-282 0,-276 6,-270 12,-270 12,-270 118,-270 118,-270 124,-270 130,-276 130,-282 130,-282 130,-294 130,-294 130,-300 124,-306 118,-306"/>
          <text text-anchor="middle" x="65" y="-292.2" font-family="Helvetica,sans-Serif" font-size="14.00" fill="#000000">ProTracker module</text>
          <text text-anchor="middle" x="65" y="-275.4" font-family="Helvetica,sans-Serif" font-size="14.00" fill="#000000">(pt2mod)</text>
        </a>
      </g>
    </g>
    <!-- meta -->
    <g id="node2" class="node csquare_nodes">
      <title>meta</title>
      <path fill="#ffffff" stroke="#000000" d="M284,-306C284,-306 178,-306 178,-306 172,-306 166,-300 166,-294 166,-294 166,-282 166,-282 166,-276 172,-270 178,-270 178,-270 284,-270 284,-270 290,-270 296,-276 296,-282 296,-282 296,-294 296,-294 296,-300 290,-306 284,-306"/>
      <text text-anchor="middle" x="231" y="-283.8" font-family="Helvetica,sans-Serif" font-size="14.00" fill="#000000">meta-data</text>
    </g>
    <!-- mod&#45;&gt;meta -->
    <g id="edge1" class="edge">
      <title>mod-&gt;meta</title>
      <path fill="none" stroke="#000000" d="M130.1312,-288C130.1312,-288 155.7842,-288 155.7842,-288"/>
      <polygon fill="#000000" stroke="#000000" points="155.7842,-291.5001 165.7842,-288 155.7842,-284.5001 155.7842,-291.5001"/>
    </g>
    <!-- patlist -->
    <g id="node5" class="node grvzclick">
      <title>patlist</title>
      <g id="a_node5">
        <a xlink:href="#pattern-list-objects-pt2patlist" xlink:title="pattern list&#10;(pt2patlist)">
          <path fill="#ffffff" stroke="#000000" d="M284,-198C284,-198 178,-198 178,-198 172,-198 166,-192 166,-186 166,-186 166,-174 166,-174 166,-168 172,-162 178,-162 178,-162 284,-162 284,-162 290,-162 296,-168 296,-174 296,-174 296,-186 296,-186 296,-192 290,-198 284,-198"/>
          <text text-anchor="middle" x="231" y="-184.2" font-family="Helvetica,sans-Serif" font-size="14.00" fill="#000000">pattern list</text>
          <text text-anchor="middle" x="231" y="-167.4" font-family="Helvetica,sans-Serif" font-size="14.00" fill="#000000">(pt2patlist)</text>
        </a>
      </g>
    </g>
    <!-- mod&#45;&gt;patlist -->
    <g id="edge4" class="edge">
      <title>mod-&gt;patlist</title>
      <path fill="none" stroke="#000000" d="M87,-269.6793C87,-238.8664 87,-180 87,-180 87,-180 155.7412,-180 155.7412,-180"/>
      <polygon fill="#000000" stroke="#000000" points="155.7412,-183.5001 165.7412,-180 155.7412,-176.5001 155.7412,-183.5001"/>
    </g>
    <!-- samplist -->
    <g id="node8" class="node grvzclick">
      <title>samplist</title>
      <g id="a_node8">
        <a xlink:href="#sample-list-objects-pt2samplist" xlink:title="sample list&#10;(pt2samplist)">
          <path fill="#ffffff" stroke="#000000" d="M284,-90C284,-90 178,-90 178,-90 172,-90 166,-84 166,-78 166,-78 166,-66 166,-66 166,-60 172,-54 178,-54 178,-54 284,-54 284,-54 290,-54 296,-60 296,-66 296,-66 296,-78 296,-78 296,-84 290,-90 284,-90"/>
          <text text-anchor="middle" x="231" y="-76.2" font-family="Helvetica,sans-Serif" font-size="14.00" fill="#000000">sample list</text>
          <text text-anchor="middle" x="231" y="-59.4" font-family="Helvetica,sans-Serif" font-size="14.00" fill="#000000">(pt2samplist)</text>
        </a>
      </g>
    </g>
    <!-- mod&#45;&gt;samplist -->
    <g id="edge8" class="edge">
      <title>mod-&gt;samplist</title>
      <path fill="none" stroke="#000000" d="M44,-269.9555C44,-218.0421 44,-72 44,-72 44,-72 155.859,-72 155.859,-72"/>
      <polygon fill="#000000" stroke="#000000" points="155.859,-75.5001 165.859,-72 155.859,-68.5001 155.859,-75.5001"/>
    </g>
    <!-- filei -->
    <g id="node3" class="node csquare_nodes">
      <title>filei</title>
      <path fill="#ffffff" stroke="#000000" d="M450,-306C450,-306 344,-306 344,-306 338,-306 332,-300 332,-294 332,-294 332,-282 332,-282 332,-276 338,-270 344,-270 344,-270 450,-270 450,-270 456,-270 462,-276 462,-282 462,-282 462,-294 462,-294 462,-300 456,-306 450,-306"/>
      <text text-anchor="middle" x="397" y="-283.8" font-family="Helvetica,sans-Serif" font-size="14.00" fill="#000000">file information</text>
    </g>
    <!-- meta&#45;&gt;filei -->
    <g id="edge2" class="edge">
      <title>meta-&gt;filei</title>
      <path fill="none" stroke="#000000" d="M296.1312,-288C296.1312,-288 321.7842,-288 321.7842,-288"/>
      <polygon fill="#000000" stroke="#000000" points="321.7842,-291.5001 331.7842,-288 321.7842,-284.5001 321.7842,-291.5001"/>
    </g>
    <!-- patord -->
    <g id="node4" class="node csquare_nodes">
      <title>patord</title>
      <path fill="#ffffff" stroke="#000000" d="M450,-252C450,-252 344,-252 344,-252 338,-252 332,-246 332,-240 332,-240 332,-228 332,-228 332,-222 338,-216 344,-216 344,-216 450,-216 450,-216 456,-216 462,-222 462,-228 462,-228 462,-240 462,-240 462,-246 456,-252 450,-252"/>
      <text text-anchor="middle" x="397" y="-229.8" font-family="Helvetica,sans-Serif" font-size="14.00" fill="#000000">pattern sequence</text>
    </g>
    <!-- meta&#45;&gt;patord -->
    <g id="edge3" class="edge">
      <title>meta-&gt;patord</title>
      <path fill="none" stroke="#000000" d="M231,-269.7181C231,-254.0522 231,-234 231,-234 231,-234 321.8688,-234 321.8688,-234"/>
      <polygon fill="#000000" stroke="#000000" points="321.8689,-237.5001 331.8688,-234 321.8688,-230.5001 321.8689,-237.5001"/>
    </g>
    <!-- pat1 -->
    <g id="node6" class="node grvzclick">
      <title>pat1</title>
      <g id="a_node6">
        <a xlink:href="#pattern-objects-pt2pat" xlink:title="pattern 1&#10;(pt2pat)">
          <path fill="#ffffff" stroke="#000000" d="M450,-198C450,-198 344,-198 344,-198 338,-198 332,-192 332,-186 332,-186 332,-174 332,-174 332,-168 338,-162 344,-162 344,-162 450,-162 450,-162 456,-162 462,-168 462,-174 462,-174 462,-186 462,-186 462,-192 456,-198 450,-198"/>
          <text text-anchor="middle" x="397" y="-184.2" font-family="Helvetica,sans-Serif" font-size="14.00" fill="#000000">pattern 1</text>
          <text text-anchor="middle" x="397" y="-167.4" font-family="Helvetica,sans-Serif" font-size="14.00" fill="#000000">(pt2pat)</text>
        </a>
      </g>
    </g>
    <!-- patlist&#45;&gt;pat1 -->
    <g id="edge5" class="edge">
      <title>patlist-&gt;pat1</title>
      <path fill="none" stroke="#000000" d="M296.1312,-180C296.1312,-180 321.7842,-180 321.7842,-180"/>
      <polygon fill="#000000" stroke="#000000" points="321.7842,-183.5001 331.7842,-180 321.7842,-176.5001 321.7842,-183.5001"/>
    </g>
    <!-- patn -->
    <g id="node7" class="node grvzclick">
      <title>patn</title>
      <g id="a_node7">
        <a xlink:href="#pattern-objects-pt2pat" xlink:title="pattern N&#10;(pt2pat)">
          <path fill="#ffffff" stroke="#000000" d="M450,-144C450,-144 344,-144 344,-144 338,-144 332,-138 332,-132 332,-132 332,-120 332,-120 332,-114 338,-108 344,-108 344,-108 450,-108 450,-108 456,-108 462,-114 462,-120 462,-120 462,-132 462,-132 462,-138 456,-144 450,-144"/>
          <text text-anchor="middle" x="397" y="-130.2" font-family="Helvetica,sans-Serif" font-size="14.00" fill="#000000">pattern N</text>
          <text text-anchor="middle" x="397" y="-113.4" font-family="Helvetica,sans-Serif" font-size="14.00" fill="#000000">(pt2pat)</text>
        </a>
      </g>
    </g>
    <!-- patlist&#45;&gt;patn -->
    <g id="edge13" class="edge">
      <title>patlist-&gt;patn</title>
      <path fill="none" stroke="#000000" d="M231,-161.7181C231,-146.0522 231,-126 231,-126 231,-126 321.8688,-126 321.8688,-126"/>
      <polygon fill="#000000" stroke="#000000" points="321.8689,-129.5001 331.8688,-126 321.8688,-122.5001 321.8689,-129.5001"/>
    </g>
    <!-- pat1&#45;&gt;patn -->
    <g id="edge10" class="edge">
      <title>pat1-&gt;patn</title>
      <path fill="none" stroke="#000000" stroke-dasharray="5,2" d="M397,-161.7181C397,-156.0882 397,-149.8917 397,-144.2631"/>
    </g>
    <!-- celllist -->
    <g id="node11" class="node grvzclick">
      <title>celllist</title>
      <g id="a_node11">
        <a xlink:href="#cell-list-objects-pt2celllist" xlink:title="cell list&#10;(pt2celllist)">
          <path fill="#ffffff" stroke="#000000" d="M616,-198C616,-198 510,-198 510,-198 504,-198 498,-192 498,-186 498,-186 498,-174 498,-174 498,-168 504,-162 510,-162 510,-162 616,-162 616,-162 622,-162 628,-168 628,-174 628,-174 628,-186 628,-186 628,-192 622,-198 616,-198"/>
          <text text-anchor="middle" x="563" y="-184.2" font-family="Helvetica,sans-Serif" font-size="14.00" fill="#000000">cell list</text>
          <text text-anchor="middle" x="563" y="-167.4" font-family="Helvetica,sans-Serif" font-size="14.00" fill="#000000">(pt2celllist)</text>
        </a>
      </g>
    </g>
    <!-- pat1&#45;&gt;celllist -->
    <g id="edge6" class="edge">
      <title>pat1-&gt;celllist</title>
      <path fill="none" stroke="#000000" d="M462.1312,-180C462.1312,-180 487.7842,-180 487.7842,-180"/>
      <polygon fill="#000000" stroke="#000000" points="487.7842,-183.5001 497.7842,-180 487.7842,-176.5001 487.7842,-183.5001"/>
    </g>
    <!-- samp1 -->
    <g id="node9" class="node grvzclick">
      <title>samp1</title>
      <g id="a_node9">
        <a xlink:href="#sample-objects-pt2samp" xlink:title="sample 1&#10;(pt2samp)">
          <path fill="#ffffff" stroke="#000000" d="M450,-90C450,-90 344,-90 344,-90 338,-90 332,-84 332,-78 332,-78 332,-66 332,-66 332,-60 338,-54 344,-54 344,-54 450,-54 450,-54 456,-54 462,-60 462,-66 462,-66 462,-78 462,-78 462,-84 456,-90 450,-90"/>
          <text text-anchor="middle" x="397" y="-76.2" font-family="Helvetica,sans-Serif" font-size="14.00" fill="#000000">sample 1</text>
          <text text-anchor="middle" x="397" y="-59.4" font-family="Helvetica,sans-Serif" font-size="14.00" fill="#000000">(pt2samp)</text>
        </a>
      </g>
    </g>
    <!-- samplist&#45;&gt;samp1 -->
    <g id="edge9" class="edge">
      <title>samplist-&gt;samp1</title>
      <path fill="none" stroke="#000000" d="M296.1312,-72C296.1312,-72 321.7842,-72 321.7842,-72"/>
      <polygon fill="#000000" stroke="#000000" points="321.7842,-75.5001 331.7842,-72 321.7842,-68.5001 321.7842,-75.5001"/>
    </g>
    <!-- sampn -->
    <g id="node10" class="node grvzclick">
      <title>sampn</title>
      <g id="a_node10">
        <a xlink:href="#sample-objects-pt2samp" xlink:title="sample N&#10;(pt2samp)">
          <path fill="#ffffff" stroke="#000000" d="M450,-36C450,-36 344,-36 344,-36 338,-36 332,-30 332,-24 332,-24 332,-12 332,-12 332,-6 338,0 344,0 344,0 450,0 450,0 456,0 462,-6 462,-12 462,-12 462,-24 462,-24 462,-30 456,-36 450,-36"/>
          <text text-anchor="middle" x="397" y="-22.2" font-family="Helvetica,sans-Serif" font-size="14.00" fill="#000000">sample N</text>
          <text text-anchor="middle" x="397" y="-5.4" font-family="Helvetica,sans-Serif" font-size="14.00" fill="#000000">(pt2samp)</text>
        </a>
      </g>
    </g>
    <!-- samplist&#45;&gt;sampn -->
    <g id="edge14" class="edge">
      <title>samplist-&gt;sampn</title>
      <path fill="none" stroke="#000000" d="M231,-53.7181C231,-38.0522 231,-18 231,-18 231,-18 321.8688,-18 321.8688,-18"/>
      <polygon fill="#000000" stroke="#000000" points="321.8689,-21.5001 331.8688,-18 321.8688,-14.5001 321.8689,-21.5001"/>
    </g>
    <!-- samp1&#45;&gt;sampn -->
    <g id="edge11" class="edge">
      <title>samp1-&gt;sampn</title>
      <path fill="none" stroke="#000000" stroke-dasharray="5,2" d="M397,-53.7181C397,-48.0882 397,-41.8917 397,-36.2631"/>
    </g>
    <!-- cell1 -->
    <g id="node12" class="node grvzclick">
      <title>cell1</title>
      <g id="a_node12">
        <a xlink:href="#cell-objects-pt2cell" xlink:title="cell 1&#10;(pt2cell)">
          <path fill="#ffffff" stroke="#000000" d="M782,-198C782,-198 676,-198 676,-198 670,-198 664,-192 664,-186 664,-186 664,-174 664,-174 664,-168 670,-162 676,-162 676,-162 782,-162 782,-162 788,-162 794,-168 794,-174 794,-174 794,-186 794,-186 794,-192 788,-198 782,-198"/>
          <text text-anchor="middle" x="729" y="-184.2" font-family="Helvetica,sans-Serif" font-size="14.00" fill="#000000">cell 1</text>
          <text text-anchor="middle" x="729" y="-167.4" font-family="Helvetica,sans-Serif" font-size="14.00" fill="#000000">(pt2cell)</text>
        </a>
      </g>
    </g>
    <!-- celllist&#45;&gt;cell1 -->
    <g id="edge7" class="edge">
      <title>celllist-&gt;cell1</title>
      <path fill="none" stroke="#000000" d="M628.1312,-180C628.1312,-180 653.7842,-180 653.7842,-180"/>
      <polygon fill="#000000" stroke="#000000" points="653.7842,-183.5001 663.7842,-180 653.7842,-176.5001 653.7842,-183.5001"/>
    </g>
    <!-- celln -->
    <g id="node13" class="node grvzclick">
      <title>celln</title>
      <g id="a_node13">
        <a xlink:href="#cell-objects-pt2cell" xlink:title="cell N&#10;(pt2cell)">
          <path fill="#ffffff" stroke="#000000" d="M782,-144C782,-144 676,-144 676,-144 670,-144 664,-138 664,-132 664,-132 664,-120 664,-120 664,-114 670,-108 676,-108 676,-108 782,-108 782,-108 788,-108 794,-114 794,-120 794,-120 794,-132 794,-132 794,-138 788,-144 782,-144"/>
          <text text-anchor="middle" x="729" y="-130.2" font-family="Helvetica,sans-Serif" font-size="14.00" fill="#000000">cell N</text>
          <text text-anchor="middle" x="729" y="-113.4" font-family="Helvetica,sans-Serif" font-size="14.00" fill="#000000">(pt2cell)</text>
        </a>
      </g>
    </g>
    <!-- celllist&#45;&gt;celln -->
    <g id="edge15" class="edge">
      <title>celllist-&gt;celln</title>
      <path fill="none" stroke="#000000" d="M563,-161.7181C563,-146.0522 563,-126 563,-126 563,-126 653.8688,-126 653.8688,-126"/>
      <polygon fill="#000000" stroke="#000000" points="653.8689,-129.5001 663.8688,-126 653.8688,-122.5001 653.8689,-129.5001"/>
    </g>
    <!-- cell1&#45;&gt;celln -->
    <g id="edge12" class="edge">
      <title>cell1-&gt;celln</title>
      <path fill="none" stroke="#000000" stroke-dasharray="5,2" d="M729,-161.7181C729,-156.0882 729,-149.8917 729,-144.2631"/>
    </g>
  </g>
</svg>

